<svg width="41" height="40" viewBox="0 0 41 40" fill="none" xmlns="http://www.w3.org/2000/svg">
<path d="M20.2851 -0.000640869H20.9112C21.286 0.135689 21.6797 0.234413 22.0327 0.413052C27.648 3.25248 33.2508 6.11384 38.8732 8.93603C39.9031 9.45315 40.7069 10.0964 40.9863 11.2599V28.776C40.7069 29.9387 39.9047 30.5827 38.8732 31.1006C33.2712 33.9103 27.6809 36.7426 22.1023 39.5977C21.0434 40.1376 20.0487 40.1384 18.9859 39.5688C13.5764 36.6698 8.157 33.7888 2.72767 30.9259C1.54356 30.2991 0.981636 29.3808 0.986332 28.0387C1.00355 22.7208 1.00355 17.4036 0.986332 12.0873C0.979288 10.677 1.54591 9.72815 2.78637 9.0747C7.96421 6.34889 13.1233 3.59017 18.298 0.854951C18.9311 0.521961 19.6198 0.285339 20.2851 -0.000640869ZM21.7173 37.1328C21.8863 37.06 21.9928 37.0192 22.0945 36.9683C27.4492 34.2521 32.8047 31.536 38.161 28.8198C38.5093 28.6443 38.6486 28.4226 38.6478 28.0293C38.6368 23.0525 38.6342 18.0759 38.64 13.0996C38.64 12.9891 38.6306 12.8786 38.6243 12.7392C38.5421 12.7713 38.4944 12.7854 38.4506 12.8073C36.2983 13.8792 34.1461 14.9549 31.9908 16.0197C31.785 16.1216 31.756 16.2547 31.756 16.4483C31.7607 17.9845 31.7607 19.5215 31.756 21.0592C31.7606 21.2164 31.7511 21.3738 31.7278 21.5293C31.6175 22.1311 31.0751 22.5541 30.4983 22.5024C30.2098 22.4811 29.9396 22.353 29.7402 22.1432C29.5409 21.9333 29.4267 21.6567 29.4199 21.3671C29.4089 21.0937 29.4152 20.8187 29.4152 20.5468V17.3344C29.2273 17.419 29.088 17.477 28.9534 17.5436C26.6736 18.6797 24.3978 19.8228 22.1109 20.9456C21.8088 21.0937 21.7094 21.259 21.7102 21.5943C21.7222 26.6229 21.7248 31.6514 21.7181 36.68L21.7173 37.1328ZM3.33499 12.7705V13.1818C3.33499 18.132 3.33238 23.0822 3.32716 28.0324C3.32716 28.4391 3.46725 28.6686 3.82569 28.8582C8.86944 31.5268 13.9098 34.2023 18.9468 36.8845C19.0689 36.9495 19.1957 37.0059 19.3569 37.0835C19.3655 36.9268 19.3764 36.8085 19.3764 36.6917C19.3764 31.6251 19.3788 26.5584 19.3835 21.4917C19.3835 21.2214 19.2997 21.078 19.0571 20.9519C13.9262 18.2817 8.79797 15.6065 3.6723 12.9264C3.58308 12.8833 3.48838 12.8489 3.33499 12.7705ZM4.6271 10.7639C4.78363 10.8517 4.89006 10.9206 5.00276 10.9755C10.0836 13.6284 15.1636 16.2832 20.2428 18.9398C20.3392 18.9998 20.4502 19.0321 20.5637 19.0331C20.6772 19.034 20.7887 19.0037 20.8861 18.9453C23.2189 17.7716 25.556 16.6055 27.8977 15.447C27.997 15.3976 28.0925 15.3396 28.224 15.2668C28.116 15.1994 28.044 15.1477 27.9665 15.1101C22.7981 12.3709 17.6307 9.63073 12.4643 6.8895C12.2295 6.76571 12.0659 6.80646 11.8562 6.9185C9.78225 8.02899 7.70542 9.13452 5.62573 10.2351C5.30485 10.4035 4.99181 10.5767 4.6271 10.7671V10.7639ZM14.7284 5.42278C14.8067 5.47293 14.8615 5.51054 14.9178 5.54031C20.1447 8.3087 25.374 11.074 30.6055 13.8361C30.6894 13.87 30.7792 13.8864 30.8696 13.8846C30.96 13.8827 31.0491 13.8624 31.1315 13.8251C33.0692 12.8755 34.9984 11.9086 36.9291 10.9449C37.0277 10.8956 37.1209 10.8345 37.2344 10.7679C37.1561 10.7185 37.1146 10.6895 37.0684 10.6629C31.6892 7.9347 26.3105 5.20549 20.9323 2.47524C20.6537 2.33342 20.4299 2.35771 20.1661 2.49953C18.4443 3.42172 16.7226 4.33215 15.0008 5.24885C14.9131 5.29899 14.831 5.35932 14.7284 5.42592V5.42278Z" fill="#202452"/>
</svg>
