<svg width="41" height="40" viewBox="0 0 41 40" fill="none" xmlns="http://www.w3.org/2000/svg">
<g clip-path="url(#clip0_231_128)">
<path d="M40.1745 7.57324V5.63024C40.1745 5.29845 40.0427 4.98024 39.8081 4.74563C39.5735 4.51102 39.2553 4.37921 38.9235 4.37921H33.1484V3.21342C33.1525 3.05555 33.1249 2.89848 33.0673 2.75144C33.0097 2.60441 32.9232 2.4704 32.813 2.35732C32.7028 2.24423 32.571 2.15435 32.4255 2.09298C32.28 2.03162 32.1237 2 31.9658 2C31.8079 2 31.6516 2.03162 31.5061 2.09298C31.3606 2.15435 31.2288 2.24423 31.1186 2.35732C31.0084 2.4704 30.9219 2.60441 30.8643 2.75144C30.8067 2.89848 30.7791 3.05555 30.7832 3.21342V4.37921H24.8932V3.21342C24.8973 3.05555 24.8697 2.89848 24.8121 2.75144C24.7545 2.60441 24.668 2.4704 24.5578 2.35732C24.4476 2.24423 24.3158 2.15435 24.1703 2.09298C24.0248 2.03162 23.8685 2 23.7106 2C23.5527 2 23.3964 2.03162 23.2509 2.09298C23.1054 2.15435 22.9736 2.24423 22.8634 2.35732C22.7532 2.4704 22.6667 2.60441 22.6091 2.75144C22.5515 2.89848 22.5239 3.05555 22.528 3.21342V4.37921H16.6396V3.21342C16.6396 2.89966 16.5149 2.59876 16.2931 2.37691C16.0712 2.15505 15.7703 2.03041 15.4566 2.03041C15.1428 2.03041 14.8419 2.15505 14.6201 2.37691C14.3982 2.59876 14.2736 2.89966 14.2736 3.21342V4.37921H8.43909C8.1073 4.37921 7.78909 4.51102 7.55448 4.74563C7.31987 4.98024 7.18806 5.29845 7.18806 5.63024V7.44814C7.18806 9.95019 7.22246 10.7196 7.16382 13.2177C7.04732 18.2359 5.86979 22.971 3.20276 27.2769C2.49215 28.447 1.61595 29.5081 0.601409 30.4271C0.522303 30.501 0.451512 30.5834 0.390297 30.6727L0.369187 30.7032C0.255249 30.8775 0.189768 31.0789 0.179474 31.2869C0.169179 31.4949 0.214441 31.7019 0.310609 31.8865C0.406778 32.0712 0.550386 32.227 0.726676 32.3378C0.902967 32.4487 1.10558 32.5105 1.31371 32.5171C1.43959 32.5328 1.71248 32.5351 1.71248 32.5351C1.71248 32.5351 5.32169 32.5242 7.17946 32.5242V35.9645C7.17946 36.2963 7.31126 36.6145 7.54588 36.8491C7.78049 37.0837 8.0987 37.2155 8.43049 37.2155H38.9235C39.2553 37.2155 39.5735 37.0837 39.8081 36.8491C40.0427 36.6145 40.1745 36.2963 40.1745 35.9645V32.7251C40.1745 22.3549 40.1745 17.9466 40.1745 7.57324ZM9.55563 7.57324V6.7413H14.2751V7.88053C14.2751 8.19428 14.3998 8.49518 14.6216 8.71703C14.8435 8.93889 15.1444 9.06353 15.4581 9.06353C15.7719 9.06353 16.0728 8.93889 16.2946 8.71703C16.5165 8.49518 16.6411 8.19428 16.6411 7.88053V6.7413H22.5303V7.88053C22.5383 8.18891 22.6663 8.48199 22.8873 8.6973C23.1082 8.91261 23.4045 9.03312 23.7129 9.03312C24.0214 9.03312 24.3177 8.91261 24.5386 8.6973C24.7596 8.48199 24.8876 8.18891 24.8956 7.88053V6.7413H30.7855V7.88053C30.7935 8.18891 30.9215 8.48199 31.1425 8.6973C31.3634 8.91261 31.6597 9.03312 31.9682 9.03312C32.2766 9.03312 32.5729 8.91261 32.7938 8.6973C33.0148 8.48199 33.1428 8.18891 33.1508 7.88053V6.7413H37.8093V11.385H9.55328L9.55563 7.57324ZM37.8116 34.0278V34.8558H9.54546V32.5273H10.0287C17.2221 32.5273 24.4139 32.5304 31.6042 32.5367C31.8758 32.5466 32.1465 32.4991 32.3986 32.3974C32.6506 32.2957 32.8784 32.142 33.0671 31.9464C35.0218 30.0159 36.4355 27.7241 37.588 25.2502C37.6466 25.1259 37.7061 25.0024 37.8093 24.7866L37.8116 34.0278ZM37.5864 16.5134C37.1619 19.8489 36.2252 23.0281 34.6066 25.9883C33.8248 27.4231 32.8943 28.7578 31.7457 29.9275C31.6056 30.0689 31.4195 30.1554 31.2211 30.1715C22.2434 30.1835 13.2657 30.1868 4.28803 30.1816H4.00342C7.69238 25.2925 9.23505 19.7582 9.51419 13.7846H37.8288C37.7506 14.708 37.6982 15.615 37.5841 16.5134H37.5864Z" fill="#202452"/>
</g>
<defs>
<clipPath id="clip0_231_128">
<rect width="40" height="40" fill="white" transform="translate(0.17804)"/>
</clipPath>
</defs>
</svg>
