<svg width="48" height="32" viewBox="0 0 48 32" fill="none" xmlns="http://www.w3.org/2000/svg">
<path d="M28.3014 13.0896C33.5438 13.0896 38.7862 13.0896 44.0286 13.0896C45.5858 13.0896 46.7227 13.881 47.0774 15.1863C47.545 16.9086 46.5259 18.529 44.7623 18.8466C44.4626 18.8935 44.1594 18.9138 43.8561 18.9072C33.4515 18.9072 23.046 18.9096 12.6397 18.9144C11.5247 18.9144 10.5505 18.6393 9.87398 17.7025C9.23265 16.8104 9.1294 15.8214 9.56789 14.83C10.0319 13.7853 10.8821 13.2108 12.0275 13.1066C12.2887 13.0811 12.5535 13.0896 12.8159 13.0896C17.9781 13.0896 23.1399 13.0896 28.3014 13.0896Z" fill="#202452"/>
<path d="M26.7793 5.81759C22.0017 5.81759 17.2241 5.81759 12.4465 5.81759C10.8821 5.81759 9.72329 4.96192 9.40991 3.62024C9.003 1.8083 10.1836 0.183012 12.0396 0.014544C12.1805 0 12.3226 0 12.4611 0C22.0163 0 31.5715 0 41.1267 0C42.5989 0 43.7188 0.735683 44.116 1.9392C44.761 3.89052 43.4455 5.75215 41.3527 5.81759C40.2595 5.85032 39.1663 5.82608 38.0731 5.82608L26.7793 5.81759Z" fill="#202452"/>
<path d="M21.7157 26.1792C24.8325 26.1792 27.9493 26.1622 31.0685 26.1852C33.205 26.1998 34.5594 28.0553 33.9217 30.0345C33.5573 31.1568 32.5006 31.9216 31.1912 31.9919C30.8474 32.0101 30.5037 31.9919 30.1587 31.9919C24.2895 31.9919 18.4188 31.9919 12.5463 31.9919C10.9467 31.9919 9.77453 31.1908 9.43686 29.8879C8.92549 27.916 10.2689 26.1913 12.3629 26.1792C15.4809 26.1658 18.5989 26.1792 21.7157 26.1792Z" fill="#202452"/>
<path d="M6.38795 3.01544C6.41589 4.54013 5.05184 5.80303 3.34162 5.81879C1.92899 5.83576 0.574657 4.54377 0.557652 3.15966C0.535789 1.39015 1.80023 0.0230113 3.4728 0.0133153C5.09314 -1.66632e-05 6.3588 1.30531 6.38795 3.01544Z" fill="#202452"/>
<path d="M6.38831 16.0262C6.38831 17.5618 5.14694 18.9072 3.71609 18.9072C1.92813 18.9181 0.581091 17.677 0.56773 15.9984C0.558012 14.4458 1.88562 13.1126 3.47316 13.1029C4.24765 13.1068 4.98909 13.4164 5.53538 13.9643C6.08166 14.5121 6.38832 15.2534 6.38831 16.0262Z" fill="#202452"/>
<path d="M6.38785 29.1195C6.38785 30.6563 5.14648 31.9968 3.71563 31.9968C1.93374 32.0089 0.563622 30.7387 0.566051 29.088C0.575526 28.3221 0.884955 27.5904 1.42815 27.0493C1.97135 26.5082 2.70519 26.2007 3.4727 26.1925C4.24811 26.1954 4.99067 26.5053 5.53726 27.0541C6.08386 27.6029 6.38979 28.3458 6.38785 29.1195Z" fill="#202452"/>
</svg>
