<svg width="28" height="32" viewBox="0 0 28 32" fill="none" xmlns="http://www.w3.org/2000/svg">
<path d="M7.64287 7.92264C7.64287 7.34446 7.64287 6.80544 7.64287 6.26724C7.66703 3.91786 8.6426 2.07085 10.6629 0.865335C14.2978 -1.30076 18.9399 0.797852 19.7597 4.95759C19.853 5.42997 19.8605 5.9215 19.8796 6.40554C19.8988 6.88958 19.8838 7.37362 19.8838 7.89931C20.0629 7.90848 20.2087 7.92098 20.3545 7.92181C21.4375 7.92181 22.5206 7.92181 23.6036 7.92181C24.5667 7.92181 24.9908 8.28838 25.0774 9.23146C25.2049 10.6136 25.3082 11.9974 25.434 13.3795C25.7264 16.6129 26.0297 19.8462 26.3204 23.0795C26.5304 25.4014 26.727 27.7249 26.9303 30.0468C26.9502 30.2684 26.9819 30.4884 26.9977 30.7133C27.0469 31.4223 26.5812 31.9521 25.8789 31.9963C25.7539 32.0046 25.6289 31.9963 25.504 31.9963H2.01019C0.843836 31.9963 0.45394 31.5273 0.565577 30.3642C0.785518 28.0573 0.969636 25.7463 1.17791 23.4386C1.472 20.1769 1.77609 16.9161 2.07101 13.6553C2.19764 12.2448 2.32094 10.8352 2.42925 9.42391C2.51673 8.28755 2.89163 7.92431 4.01799 7.92431H7.64287V7.92264ZM2.93328 29.6577H24.5942C24.011 23.172 23.4278 16.7228 22.8513 10.272H19.8855C19.8855 10.6353 19.8855 10.966 19.8855 11.2976C19.8855 11.6292 19.8955 11.9641 19.8788 12.2973C19.8446 12.9871 19.3556 13.4437 18.6933 13.4229C18.0718 13.4029 17.6152 12.943 17.6011 12.2907C17.5869 11.6158 17.6011 10.941 17.6011 10.2687H9.93643V11.2868C9.93643 11.62 9.94476 11.9532 9.93643 12.2865C9.90393 13.0163 9.34325 13.4953 8.63094 13.412C8.06192 13.342 7.66203 12.8905 7.6462 12.2557C7.62954 11.5942 7.6462 10.931 7.6462 10.2679H4.67532C4.09381 16.7362 3.51563 23.1753 2.93328 29.6577ZM9.86894 7.88932H17.6336C17.5911 7.02621 17.6336 6.18393 17.4928 5.37498C17.1812 3.60711 15.6724 2.37577 13.8929 2.32078C12.0692 2.26747 10.4979 3.39134 10.0997 5.17003C9.90643 6.03564 9.94059 6.95123 9.86894 7.88932Z" fill="#202452"/>
</svg>
