<svg width="28" height="32" viewBox="0 0 28 32" fill="none" xmlns="http://www.w3.org/2000/svg">
<path d="M10.673 0C10.9596 0.191079 11.2227 0.323172 11.4255 0.510097C14.8704 3.67646 18.3108 6.84699 21.7467 10.0217L26.7788 14.6599C27.4097 15.2414 27.4097 15.5264 26.7698 16.1179L17.5706 24.6043C16.9163 25.2074 16.6099 25.2058 15.9548 24.6043C10.8553 19.9032 5.75765 15.2024 0.661782 10.5019C0.021945 9.912 0.0174391 9.62206 0.644659 9.04301C3.7333 6.19455 6.82374 3.34775 9.91599 0.50262C10.1197 0.316526 10.3855 0.187756 10.673 0ZM25.3063 15.4117L10.6414 1.88919L2.09556 9.76495L16.7595 23.29C19.6037 20.6681 22.4685 18.0279 25.3063 15.4117Z" fill="#202452"/>
<path d="M16.7386 30.3807C17.7164 29.4668 18.6176 28.6186 19.5269 27.7779C21.605 25.8566 23.6864 23.9378 25.7711 22.0214C25.8739 21.9208 25.9888 21.8313 26.1136 21.7547C26.2443 21.6693 26.4036 21.6293 26.5633 21.6418C26.7229 21.6542 26.8726 21.7184 26.9859 21.8229C27.2563 22.0513 27.3365 22.3421 27.1472 22.6478C27.0445 22.8002 26.9209 22.9398 26.7795 23.0632C23.7041 25.9023 20.6269 28.7396 17.5479 31.5754C16.9279 32.1461 16.5944 32.1419 15.9645 31.5604L0.678711 17.4638C0.128091 16.9562 0.0424789 16.5499 0.41827 16.2176C0.778742 15.9011 1.205 15.9817 1.73669 16.4727C6.57963 20.9373 11.4217 25.4024 16.2628 29.8681C16.4106 30.0077 16.5377 30.1639 16.7386 30.3807Z" fill="#202452"/>
<path d="M16.7394 26.8956C17.9758 25.7474 19.1465 24.6525 20.3225 23.5725C22.1249 21.9059 23.9296 20.2419 25.7368 18.5803C25.8639 18.464 26.0008 18.2879 26.1477 18.2738C26.4181 18.2463 26.7488 18.248 26.9732 18.3668C27.2679 18.523 27.3337 18.8478 27.1616 19.1394C27.0475 19.3174 26.906 19.4791 26.7416 19.6196C23.6878 22.4387 20.6307 25.257 17.5703 28.0744C16.9124 28.6809 16.6078 28.6826 15.9554 28.0811C10.8595 23.3817 5.76337 18.6817 0.666902 13.9811C0.133404 13.4893 0.046891 13.0997 0.396548 12.7649C0.746206 12.4301 1.19319 12.499 1.74832 13.0091C6.6303 17.513 11.5138 22.017 16.3988 26.5209C16.5024 26.6189 16.5907 26.7327 16.7394 26.8956Z" fill="#202452"/>
<path d="M11.8029 9.95686C11.2263 9.95544 10.6732 9.74598 10.2621 9.37333C9.85096 9.00067 9.61442 8.49443 9.60312 7.963C9.5905 6.88299 10.5872 5.94919 11.7731 5.94005C12.0627 5.93312 12.3509 5.97947 12.6208 6.07642C12.8907 6.17336 13.1369 6.31893 13.3451 6.50464C13.5533 6.69034 13.7192 6.91244 13.8331 7.15795C13.9471 7.40346 14.0068 7.66745 14.0088 7.93448C14.0107 8.20152 13.9549 8.46624 13.8446 8.71316C13.7343 8.96008 13.5717 9.18425 13.3663 9.37255C13.1609 9.56086 12.9169 9.70952 12.6484 9.80985C12.38 9.91018 12.0925 9.96015 11.8029 9.95686ZM11.7804 7.3341C11.6074 7.34175 11.444 7.40918 11.3225 7.52296C11.2011 7.63674 11.1307 7.78851 11.1252 7.94804C11.1264 8.02856 11.1448 8.10807 11.1793 8.18204C11.2138 8.25601 11.2638 8.32298 11.3264 8.37915C11.389 8.43531 11.4629 8.47955 11.5441 8.50936C11.6252 8.53916 11.7119 8.55394 11.7993 8.55285C11.8866 8.55176 11.9729 8.53482 12.0531 8.503C12.1333 8.47118 12.206 8.4251 12.2669 8.3674C12.3278 8.30969 12.3758 8.24149 12.4082 8.16669C12.4405 8.09188 12.4565 8.01194 12.4553 7.93143C12.4429 7.77182 12.3663 7.62223 12.2407 7.5118C12.1151 7.40137 11.9494 7.33802 11.7759 7.3341H11.7804Z" fill="#202452"/>
<path d="M10.8577 12.2556C10.6775 12.7757 10.5261 13.3065 10.3062 13.8117C10.2701 13.8922 10.2169 13.9654 10.1497 14.0267C10.0825 14.088 10.0027 14.1363 9.91487 14.1686C9.82707 14.201 9.73313 14.2168 9.63859 14.2152C9.54405 14.2135 9.45083 14.1944 9.36445 14.1589C9.01479 14.0301 8.84717 13.7194 8.93729 13.3414C8.97898 13.209 9.03047 13.0794 9.09139 12.9535C9.40049 12.1975 9.27973 11.5004 8.68856 10.9098C8.11091 10.3324 7.38095 10.1621 6.55547 10.3797C6.39777 10.4221 6.24637 10.4844 6.09227 10.5392C5.65429 10.6971 5.25417 10.57 5.06853 10.2144C4.88288 9.85882 5.03789 9.49079 5.46955 9.28226C5.8793 9.07638 6.32963 8.94826 6.79396 8.90545C7.2583 8.86264 7.72723 8.90602 8.17309 9.03303C9.74564 9.47085 10.7387 10.722 10.8577 12.2556Z" fill="#202452"/>
<path d="M12.6842 14.5154C12.9545 14.6641 13.1735 14.7363 13.3231 14.8734C14.7842 16.2027 16.2375 17.5405 17.683 18.8869C18.057 19.235 18.0651 19.6687 17.7407 19.952C17.4163 20.2353 17.0044 20.2161 16.6259 19.8689C15.1678 18.5358 13.7148 17.1977 12.2669 15.8546C11.9966 15.6053 11.8515 15.3046 12.0533 14.9972C12.1822 14.8011 12.4553 14.684 12.6842 14.5154Z" fill="#202452"/>
<path d="M14.675 12.6344C14.9535 12.7873 15.1878 12.8662 15.3482 13.0124C16.8111 14.345 18.265 15.6848 19.7099 17.0318C20.1073 17.4023 20.11 17.7961 19.764 18.0927C19.4404 18.371 19.025 18.3494 18.642 17.9996C17.1839 16.6654 15.7303 15.3264 14.2812 13.9828C14.0316 13.7518 13.8648 13.4677 14.0694 13.1645C14.2055 12.9601 14.4524 12.823 14.675 12.6344Z" fill="#202452"/>
<path d="M16.6305 10.8707C16.9062 11.0311 17.1315 11.1199 17.2947 11.2637C17.994 11.8892 18.6807 12.5265 19.3611 13.1686C19.7432 13.5292 19.7567 13.9379 19.4241 14.2329C19.1123 14.5103 18.6825 14.4937 18.3049 14.1548C17.5839 13.5084 16.8819 12.848 16.1754 12.1908C15.9177 11.9524 15.8095 11.6483 16.0015 11.36C16.1348 11.1656 16.3989 11.0443 16.6305 10.8707Z" fill="#202452"/>
</svg>
